<svg width="125" height="42" viewBox="0 0 125 42" fill="none" xmlns="http://www.w3.org/2000/svg">
<path d="M5.31237 25.973L8.46691 40.1723L6.74747 40.5543L3.99341 28.1577L3.91021 28.1761L0.954973 31.2481L0.566817 29.501L3.59293 26.355L5.31237 25.973ZM12.5506 39.2651L12.2733 38.0171L15.8204 31.8452C16.2369 31.1222 16.5739 30.4992 16.8312 29.9764C17.0875 29.449 17.2575 28.9699 17.3412 28.539C17.4286 28.1025 17.424 27.6669 17.3274 27.2325C17.2165 26.7333 17.0004 26.3278 16.6789 26.016C16.362 25.7033 15.9758 25.4932 15.5203 25.3858C15.0648 25.2785 14.5805 25.2818 14.0674 25.3958C13.522 25.5169 13.0711 25.7359 12.7147 26.0528C12.3618 26.364 12.1191 26.7453 11.9866 27.1967C11.8587 27.6471 11.8548 28.1427 11.975 28.6835L10.3387 29.047C10.1539 28.215 10.1835 27.4421 10.4275 26.7283C10.6714 26.0144 11.0849 25.4084 11.6678 24.9103C12.2554 24.4112 12.9628 24.0697 13.7902 23.8859C14.6222 23.701 15.3984 23.7129 16.119 23.9214C16.8395 24.13 17.4485 24.4918 17.9462 25.007C18.4438 25.5221 18.7737 26.1448 18.936 26.8751C19.052 27.3974 19.0707 27.9292 18.9921 28.4705C18.9171 29.0062 18.7162 29.6304 18.3896 30.3432C18.0665 31.0504 17.5953 31.9311 16.9758 32.9854L14.5444 37.1051L14.569 37.216L21.1695 35.7497L21.5083 37.275L12.5506 39.2651ZM37.6437 31.013L28.0855 24.9297L28.9052 23.6418L38.4634 29.725L37.6437 31.013ZM30.8768 32.5163L29.5888 31.6966L35.6721 22.1384L36.9601 22.9582L30.8768 32.5163ZM50.0612 16.0315L53.2157 30.2308L51.4963 30.6128L48.7422 18.2162L48.659 18.2347L45.7038 21.3066L45.3157 19.5595L48.3418 16.4135L50.0612 16.0315ZM57.2994 29.3236L57.0222 28.0756L60.5692 21.9037C60.9858 21.1807 61.3227 20.5577 61.58 20.0349C61.8363 19.5075 62.0063 19.0284 62.0901 18.5975C62.1774 18.161 62.1728 17.7255 62.0763 17.291C61.9654 16.7918 61.7492 16.3863 61.4277 16.0746C61.1109 15.7618 60.7247 15.5517 60.2691 15.4443C59.8136 15.337 59.3293 15.3403 58.8163 15.4543C58.2708 15.5754 57.8199 15.7945 57.4635 16.1113C57.1107 16.4225 56.868 16.8038 56.7354 17.2552C56.6075 17.7056 56.6037 18.2012 56.7238 18.742L55.0876 19.1055C54.9027 18.2735 54.9323 17.5006 55.1763 16.7868C55.4203 16.0729 55.8337 15.4669 56.4167 14.9688C57.0042 14.4697 57.7117 14.1282 58.539 13.9444C59.371 13.7595 60.1473 13.7714 60.8678 13.9799C61.5883 14.1885 62.1974 14.5503 62.695 15.0655C63.1926 15.5806 63.5225 16.2033 63.6848 16.9336C63.8008 17.4559 63.8195 17.9877 63.7409 18.529C63.6659 19.0647 63.4651 19.6889 63.1384 20.4017C62.8153 21.1089 62.3441 21.9896 61.7247 23.0439L59.2932 27.1636L59.3179 27.2745L65.9183 25.8082L66.2572 27.3335L57.2994 29.3236ZM73.4382 16.9203L73.1055 15.4227L81.6472 13.5251L81.9799 15.0227L73.4382 16.9203ZM74.35 21.0248L74.0173 19.5272L82.5591 17.6296L82.8918 19.1271L74.35 21.0248ZM94.81 6.09004L97.9646 20.2893L96.2451 20.6713L93.4911 8.27468L93.4079 8.29316L90.4526 11.3651L90.0645 9.61797L93.0906 6.47204L94.81 6.09004ZM101.069 16.544L100.754 15.1297L104.801 3.87047L105.827 3.64251L106.314 5.83341L105.62 5.98744L102.563 14.495L102.588 14.6059L110.991 12.7391L111.33 14.2644L101.069 16.544ZM108.399 17.9712L107.657 14.6293L107.51 13.9707L105.245 3.77189L106.881 3.40838L110.035 17.6076L108.399 17.9712ZM113.595 13.7611L113.281 12.3467L117.327 1.08753L118.354 0.859567L118.84 3.05047L118.147 3.2045L115.09 11.7121L115.114 11.823L123.517 9.95615L123.856 11.4815L113.595 13.7611ZM120.926 15.1882L120.183 11.8464L120.037 11.1877L117.771 0.988952L119.407 0.625441L122.562 14.8247L120.926 15.1882Z" fill="#BBBBB6"/>
</svg>
