<svg width="31" height="31" viewBox="0 0 31 31" fill="none" xmlns="http://www.w3.org/2000/svg">
<path d="M7.75 23.25H5.16667C4.8007 23.25 4.49414 23.126 4.247 22.878C3.99987 22.63 3.87587 22.3235 3.875 21.9583C3.87414 21.5932 3.99814 21.2867 4.247 21.0387C4.49587 20.7907 4.80242 20.6667 5.16667 20.6667H9.04167C9.40764 20.6667 9.71463 20.7907 9.96263 21.0387C10.2106 21.2867 10.3342 21.5932 10.3333 21.9583V25.8333C10.3333 26.1993 10.2093 26.5063 9.96134 26.7543C9.71334 27.0023 9.40678 27.1259 9.04167 27.125C8.67656 27.1241 8.37 27.0001 8.122 26.753C7.874 26.5059 7.75 26.1993 7.75 25.8333V23.25ZM23.25 23.25V25.8333C23.25 26.1993 23.126 26.5063 22.878 26.7543C22.63 27.0023 22.3235 27.1259 21.9583 27.125C21.5932 27.1241 21.2867 27.0001 21.0387 26.753C20.7907 26.5059 20.6667 26.1993 20.6667 25.8333V21.9583C20.6667 21.5924 20.7907 21.2858 21.0387 21.0387C21.2867 20.7915 21.5932 20.6675 21.9583 20.6667H25.8333C26.1993 20.6667 26.5063 20.7907 26.7543 21.0387C27.0023 21.2867 27.1259 21.5932 27.125 21.9583C27.1241 22.3235 27.0001 22.6304 26.753 22.8793C26.5059 23.1282 26.1993 23.2517 25.8333 23.25H23.25ZM7.75 7.75V5.16667C7.75 4.8007 7.874 4.49414 8.122 4.247C8.37 3.99987 8.67656 3.87587 9.04167 3.875C9.40678 3.87414 9.71377 3.99814 9.96263 4.247C10.2115 4.49587 10.3351 4.80242 10.3333 5.16667V9.04167C10.3333 9.40764 10.2093 9.71463 9.96134 9.96263C9.71334 10.2106 9.40678 10.3342 9.04167 10.3333H5.16667C4.8007 10.3333 4.49414 10.2093 4.247 9.96134C3.99987 9.71334 3.87587 9.40678 3.875 9.04167C3.87414 8.67656 3.99814 8.37 4.247 8.122C4.49587 7.874 4.80242 7.75 5.16667 7.75H7.75ZM23.25 7.75H25.8333C26.1993 7.75 26.5063 7.874 26.7543 8.122C27.0023 8.37 27.1259 8.67656 27.125 9.04167C27.1241 9.40678 27.0001 9.71377 26.753 9.96263C26.5059 10.2115 26.1993 10.3351 25.8333 10.3333H21.9583C21.5924 10.3333 21.2858 10.2093 21.0387 9.96134C20.7915 9.71334 20.6675 9.40678 20.6667 9.04167V5.16667C20.6667 4.8007 20.7907 4.49414 21.0387 4.247C21.2867 3.99987 21.5932 3.87587 21.9583 3.875C22.3235 3.87414 22.6304 3.99814 22.8793 4.247C23.1282 4.49587 23.2517 4.80242 23.25 5.16667V7.75Z" fill="white"/>
</svg>
