<svg width="210" height="124" viewBox="0 0 210 124" fill="none" xmlns="http://www.w3.org/2000/svg">
<path d="M12 75.2353C12 68.4118 18.3913 65 31.1739 65H139.826C152.609 65 159 68.4118 159 75.2353V102.529C159 109.353 152.609 112.765 139.826 112.765H63.1304L50.3478 123L47.7913 112.765H31.1739C18.3913 112.765 12 109.353 12 102.529V75.2353Z" stroke="#D8C7FF" stroke-width="2" stroke-linecap="round" stroke-linejoin="round" stroke-dasharray="5 3"/>
<path d="M21.1591 43.6932V46.7159H3.88636V43.6932H21.1591ZM12.5227 54.5966C11.848 54.5966 11.2723 54.3627 10.7955 53.8949C10.3277 53.4181 10.0938 52.8423 10.0938 52.1676C10.0938 51.5199 10.3277 50.9621 10.7955 50.4943C11.2723 50.0265 11.848 49.7926 12.5227 49.7926C13.1705 49.7926 13.7282 50.0265 14.196 50.4943C14.6638 50.9621 14.8977 51.5199 14.8977 52.1676C14.8977 52.8423 14.6638 53.4181 14.196 53.8949C13.7282 54.3627 13.1705 54.5966 12.5227 54.5966ZM12.5227 40.6165C12.0729 40.6165 11.6636 40.5085 11.2947 40.2926C10.9259 40.0767 10.6335 39.7843 10.4176 39.4155C10.2017 39.0466 10.0938 38.6373 10.0938 38.1875C10.0938 37.5398 10.3277 36.982 10.7955 36.5142C11.2723 36.0464 11.848 35.8125 12.5227 35.8125C13.1705 35.8125 13.7282 36.0464 14.196 36.5142C14.6638 36.982 14.8977 37.5398 14.8977 38.1875C14.8977 38.8622 14.6638 39.438 14.196 39.9148C13.7282 40.3826 13.1705 40.6165 12.5227 40.6165Z" fill="#4A8FE7"/>
<path d="M28.6193 80.4545V95H26.858V82.3011H26.7727L23.2216 84.6591V82.8693L26.858 80.4545H28.6193ZM37.5469 95.1989C36.4768 95.1989 35.5653 94.9077 34.8125 94.3253C34.0597 93.7382 33.4844 92.8883 33.0866 91.7756C32.6889 90.6581 32.4901 89.3087 32.4901 87.7273C32.4901 86.1553 32.6889 84.813 33.0866 83.7003C33.4891 82.5829 34.0668 81.7306 34.8196 81.1435C35.5772 80.5516 36.4863 80.2557 37.5469 80.2557C38.6075 80.2557 39.5142 80.5516 40.267 81.1435C41.0246 81.7306 41.6023 82.5829 42 83.7003C42.4025 84.813 42.6037 86.1553 42.6037 87.7273C42.6037 89.3087 42.4048 90.6581 42.0071 91.7756C41.6094 92.8883 41.0341 93.7382 40.2812 94.3253C39.5284 94.9077 38.617 95.1989 37.5469 95.1989ZM37.5469 93.6364C38.6075 93.6364 39.4313 93.125 40.0185 92.1023C40.6056 91.0795 40.8991 89.6212 40.8991 87.7273C40.8991 86.4678 40.7642 85.3954 40.4943 84.5099C40.2292 83.6245 39.8456 82.9498 39.3438 82.4858C38.8466 82.0218 38.2476 81.7898 37.5469 81.7898C36.4957 81.7898 35.6742 82.3082 35.0824 83.3452C34.4905 84.3774 34.1946 85.8381 34.1946 87.7273C34.1946 88.9867 34.3272 90.0568 34.5923 90.9375C34.8575 91.8182 35.2386 92.4882 35.7358 92.9474C36.2377 93.4067 36.8414 93.6364 37.5469 93.6364ZM50.0469 95.1989C48.9768 95.1989 48.0653 94.9077 47.3125 94.3253C46.5597 93.7382 45.9844 92.8883 45.5866 91.7756C45.1889 90.6581 44.9901 89.3087 44.9901 87.7273C44.9901 86.1553 45.1889 84.813 45.5866 83.7003C45.9891 82.5829 46.5668 81.7306 47.3196 81.1435C48.0772 80.5516 48.9863 80.2557 50.0469 80.2557C51.1075 80.2557 52.0142 80.5516 52.767 81.1435C53.5246 81.7306 54.1023 82.5829 54.5 83.7003C54.9025 84.813 55.1037 86.1553 55.1037 87.7273C55.1037 89.3087 54.9048 90.6581 54.5071 91.7756C54.1094 92.8883 53.5341 93.7382 52.7812 94.3253C52.0284 94.9077 51.117 95.1989 50.0469 95.1989ZM50.0469 93.6364C51.1075 93.6364 51.9313 93.125 52.5185 92.1023C53.1056 91.0795 53.3991 89.6212 53.3991 87.7273C53.3991 86.4678 53.2642 85.3954 52.9943 84.5099C52.7292 83.6245 52.3456 82.9498 51.8438 82.4858C51.3466 82.0218 50.7476 81.7898 50.0469 81.7898C48.9957 81.7898 48.1742 82.3082 47.5824 83.3452C46.9905 84.3774 46.6946 85.8381 46.6946 87.7273C46.6946 88.9867 46.8272 90.0568 47.0923 90.9375C47.3575 91.8182 47.7386 92.4882 48.2358 92.9474C48.7377 93.4067 49.3414 93.6364 50.0469 93.6364ZM73.0582 86.9318V88.5227H63.9673V86.9318H73.0582ZM68.5128 92.6705C68.1577 92.6705 67.8546 92.5473 67.6037 92.3011C67.3575 92.0502 67.2344 91.7472 67.2344 91.392C67.2344 91.0511 67.3575 90.7576 67.6037 90.5114C67.8546 90.2652 68.1577 90.142 68.5128 90.142C68.8537 90.142 69.1473 90.2652 69.3935 90.5114C69.6397 90.7576 69.7628 91.0511 69.7628 91.392C69.7628 91.7472 69.6397 92.0502 69.3935 92.3011C69.1473 92.5473 68.8537 92.6705 68.5128 92.6705ZM68.5128 85.3125C68.276 85.3125 68.0606 85.2557 67.8665 85.142C67.6723 85.0284 67.5185 84.8745 67.4048 84.6804C67.2912 84.4863 67.2344 84.2708 67.2344 84.0341C67.2344 83.6932 67.3575 83.3996 67.6037 83.1534C67.8546 82.9072 68.1577 82.7841 68.5128 82.7841C68.8537 82.7841 69.1473 82.9072 69.3935 83.1534C69.6397 83.3996 69.7628 83.6932 69.7628 84.0341C69.7628 84.3892 69.6397 84.6922 69.3935 84.9432C69.1473 85.1894 68.8537 85.3125 68.5128 85.3125ZM81.8952 92.017V90.5682L88.2873 80.4545H89.3384V82.6989H88.6282L83.7987 90.3409V90.4545H92.4066V92.017H81.8952ZM88.7418 95V91.5767V90.902V80.4545H90.418V95H88.7418ZM101.403 86.392V84.858H110.153V86.392H101.403ZM101.403 90.5966V89.0625H110.153V90.5966H101.403ZM119.502 95V93.7216L124.303 88.4659C124.866 87.8504 125.33 87.3153 125.695 86.8608C126.06 86.4015 126.329 85.9706 126.505 85.5682C126.685 85.161 126.775 84.7348 126.775 84.2898C126.775 83.7784 126.651 83.3357 126.405 82.9616C126.164 82.5876 125.832 82.2988 125.411 82.0952C124.989 81.8916 124.516 81.7898 123.99 81.7898C123.432 81.7898 122.944 81.9058 122.527 82.1378C122.115 82.3651 121.796 82.6847 121.569 83.0966C121.346 83.5085 121.235 83.9915 121.235 84.5455H119.559C119.559 83.6932 119.755 82.9451 120.148 82.3011C120.541 81.6572 121.076 81.1553 121.753 80.7955C122.435 80.4356 123.2 80.2557 124.047 80.2557C124.9 80.2557 125.655 80.4356 126.313 80.7955C126.971 81.1553 127.487 81.6406 127.861 82.2514C128.235 82.8622 128.422 83.5417 128.422 84.2898C128.422 84.8248 128.325 85.348 128.131 85.8594C127.942 86.366 127.61 86.9318 127.137 87.5568C126.668 88.1771 126.017 88.9347 125.184 89.8295L121.917 93.3239V93.4375H128.678V95H119.502ZM136.157 95.1989C135.323 95.1989 134.573 95.0331 133.905 94.7017C133.238 94.3703 132.703 93.9157 132.3 93.3381C131.898 92.7604 131.677 92.1023 131.64 91.3636H133.344C133.41 92.0218 133.709 92.5663 134.239 92.9972C134.774 93.4233 135.413 93.6364 136.157 93.6364C136.753 93.6364 137.283 93.4967 137.748 93.2173C138.216 92.938 138.583 92.5545 138.848 92.0668C139.118 91.5743 139.253 91.018 139.253 90.3977C139.253 89.7633 139.114 89.1974 138.834 88.7003C138.56 88.1984 138.181 87.803 137.698 87.5142C137.215 87.2254 136.663 87.0786 136.043 87.0739C135.598 87.0691 135.141 87.1378 134.672 87.2798C134.203 87.4171 133.818 87.5947 133.515 87.8125L131.867 87.6136L132.748 80.4545H140.304V82.017H134.225L133.713 86.3068H133.799C134.097 86.0701 134.471 85.8736 134.921 85.7173C135.371 85.5611 135.839 85.483 136.327 85.483C137.217 85.483 138.01 85.696 138.706 86.1222C139.407 86.5436 139.956 87.1212 140.354 87.8551C140.757 88.589 140.958 89.4271 140.958 90.3693C140.958 91.2973 140.749 92.1259 140.333 92.8551C139.921 93.5795 139.353 94.1525 138.628 94.5739C137.904 94.9905 137.08 95.1989 136.157 95.1989Z" fill="#D0D0D0"/>
<path d="M101 14.8014C117.656 14.2134 129.551 20.4643 136.684 33.5541C143.817 46.6439 155.711 52.8948 172.368 52.3067C189.024 51.7187 200.347 58.7903 206.337 73.5214" stroke="#E07B39" stroke-width="2" stroke-linecap="round"/>
</svg>
