<svg width="40" height="40" viewBox="0 0 40 40" fill="none" xmlns="http://www.w3.org/2000/svg">
<rect x="1.5" y="1.5" width="37" height="37" rx="18.5" stroke="#002F76" stroke-width="3"/>
<path fill-rule="evenodd" clip-rule="evenodd" d="M10.0137 24.6789C10.0137 24.3951 10.1187 24.1229 10.3056 23.9223C10.4924 23.7216 10.7459 23.6088 11.0102 23.6088H13.0032C13.7961 23.6088 14.5565 23.9471 15.1172 24.5491C15.6778 25.1512 15.9928 25.9677 15.9928 26.8191V28.9593C15.9928 29.2431 15.8878 29.5153 15.7009 29.716C15.5141 29.9166 15.2606 30.0294 14.9963 30.0294C14.732 30.0294 14.4785 29.9166 14.2916 29.716C14.1048 29.5153 13.9998 29.2431 13.9998 28.9593V26.8191C13.9998 26.5353 13.8948 26.2631 13.7079 26.0624C13.521 25.8618 13.2675 25.749 13.0032 25.749H11.0102C10.7459 25.749 10.4924 25.6363 10.3056 25.4356C10.1187 25.2349 10.0137 24.9627 10.0137 24.6789ZM24.0346 28.9544C24.0346 29.2382 24.1395 29.5104 24.3264 29.7111C24.5133 29.9118 24.7668 30.0245 25.0311 30.0245C25.2954 30.0245 25.5488 29.9118 25.7357 29.7111C25.9226 29.5104 26.0276 29.2382 26.0276 28.9544V26.8142C26.0276 26.5304 26.1326 26.2582 26.3195 26.0576C26.5064 25.8569 26.7598 25.7441 27.0241 25.7441H29.0172C29.2815 25.7441 29.5349 25.6314 29.7218 25.4307C29.9087 25.23 30.0137 24.9579 30.0137 24.6741C30.0137 24.3902 29.9087 24.1181 29.7218 23.9174C29.5349 23.7167 29.2815 23.604 29.0172 23.604H27.0241C26.2312 23.604 25.4708 23.9422 24.9102 24.5442C24.3495 25.1463 24.0346 25.9628 24.0346 26.8142V28.9544ZM15.9655 11.0403C15.9655 10.7565 15.8605 10.4843 15.6736 10.2836C15.4868 10.083 15.2333 9.97021 14.969 9.97021C14.7047 9.97021 14.4512 10.083 14.2643 10.2836C14.0774 10.4843 13.9725 10.7565 13.9725 11.0403V13.1805C13.9725 13.4643 13.8675 13.7365 13.6806 13.9372C13.4937 14.1379 13.2402 14.2506 12.9759 14.2506H10.9829C10.7186 14.2506 10.4651 14.3634 10.2782 14.5641C10.0913 14.7647 9.98633 15.0369 9.98633 15.3207C9.98633 15.6045 10.0913 15.8767 10.2782 16.0774C10.4651 16.2781 10.7186 16.3908 10.9829 16.3908H12.9759C13.7688 16.3908 14.5292 16.0526 15.0899 15.4506C15.6505 14.8485 15.9655 14.032 15.9655 13.1805V11.0403ZM29.0172 16.3908C29.2815 16.3908 29.535 16.2781 29.7219 16.0774C29.9087 15.8767 30.0137 15.6045 30.0137 15.3207C30.0137 15.0369 29.9087 14.7647 29.7219 14.5641C29.535 14.3634 29.2815 14.2506 29.0172 14.2506H27.0241C26.7598 14.2506 26.5064 14.1379 26.3195 13.9372C26.1326 13.7365 26.0276 13.4643 26.0276 13.1805V11.0403C26.0276 10.7565 25.9226 10.4843 25.7357 10.2836C25.5489 10.083 25.2954 9.97021 25.0311 9.97021C24.7668 9.97021 24.5133 10.083 24.3264 10.2836C24.1395 10.4843 24.0346 10.7565 24.0346 11.0403V13.1805C24.0346 14.032 24.3495 14.8485 24.9102 15.4506C25.4708 16.0526 26.2313 16.3908 27.0241 16.3908H29.0172Z" fill="#002F76"/>
</svg>
