<svg width="40" height="40" viewBox="0 0 40 40" fill="none" xmlns="http://www.w3.org/2000/svg">
<rect x="1.5" y="1.5" width="37" height="37" rx="18.5" stroke="#002F76" stroke-width="3"/>
<path fill-rule="evenodd" clip-rule="evenodd" d="M22.5 12.5C22.5 12.2348 22.6054 11.9804 22.7929 11.7929C22.9804 11.6054 23.2348 11.5 23.5 11.5H25.5C26.2956 11.5 27.0587 11.8161 27.6213 12.3787C28.1839 12.9413 28.5 13.7044 28.5 14.5V16.5C28.5 16.7652 28.3946 17.0196 28.2071 17.2071C28.0196 17.3946 27.7652 17.5 27.5 17.5C27.2348 17.5 26.9804 17.3946 26.7929 17.2071C26.6054 17.0196 26.5 16.7652 26.5 16.5V14.5C26.5 14.2348 26.3946 13.9804 26.2071 13.7929C26.0196 13.6054 25.7652 13.5 25.5 13.5H23.5C23.2348 13.5 22.9804 13.3946 22.7929 13.2071C22.6054 13.0196 22.5 12.7652 22.5 12.5ZM11.5 16.5C11.5 16.7652 11.6054 17.0196 11.7929 17.2071C11.9804 17.3946 12.2348 17.5 12.5 17.5C12.7652 17.5 13.0196 17.3946 13.2071 17.2071C13.3946 17.0196 13.5 16.7652 13.5 16.5V14.5C13.5 14.2348 13.6054 13.9804 13.7929 13.7929C13.9804 13.6054 14.2348 13.5 14.5 13.5H16.5C16.7652 13.5 17.0196 13.3946 17.2071 13.2071C17.3946 13.0196 17.5 12.7652 17.5 12.5C17.5 12.2348 17.3946 11.9804 17.2071 11.7929C17.0196 11.6054 16.7652 11.5 16.5 11.5H14.5C13.7044 11.5 12.9413 11.8161 12.3787 12.3787C11.8161 12.9413 11.5 13.7044 11.5 14.5V16.5ZM28.5 23.5C28.5 23.2348 28.3946 22.9804 28.2071 22.7929C28.0196 22.6054 27.7652 22.5 27.5 22.5C27.2348 22.5 26.9804 22.6054 26.7929 22.7929C26.6054 22.9804 26.5 23.2348 26.5 23.5V25.5C26.5 25.7652 26.3946 26.0196 26.2071 26.2071C26.0196 26.3946 25.7652 26.5 25.5 26.5H23.5C23.2348 26.5 22.9804 26.6054 22.7929 26.7929C22.6054 26.9804 22.5 27.2348 22.5 27.5C22.5 27.7652 22.6054 28.0196 22.7929 28.2071C22.9804 28.3946 23.2348 28.5 23.5 28.5H25.5C26.2956 28.5 27.0587 28.1839 27.6213 27.6213C28.1839 27.0587 28.5 26.2956 28.5 25.5V23.5ZM16.5 28.5C16.7652 28.5 17.0196 28.3946 17.2071 28.2071C17.3946 28.0196 17.5 27.7652 17.5 27.5C17.5 27.2348 17.3946 26.9804 17.2071 26.7929C17.0196 26.6054 16.7652 26.5 16.5 26.5H14.5C14.2348 26.5 13.9804 26.3946 13.7929 26.2071C13.6054 26.0196 13.5 25.7652 13.5 25.5V23.5C13.5 23.2348 13.3946 22.9804 13.2071 22.7929C13.0196 22.6054 12.7652 22.5 12.5 22.5C12.2348 22.5 11.9804 22.6054 11.7929 22.7929C11.6054 22.9804 11.5 23.2348 11.5 23.5V25.5C11.5 26.2956 11.8161 27.0587 12.3787 27.6213C12.9413 28.1839 13.7044 28.5 14.5 28.5H16.5Z" fill="#002F76"/>
</svg>
