<svg width="152" height="70" viewBox="0 0 152 70" fill="none" xmlns="http://www.w3.org/2000/svg">
<path opacity="0.12" d="M135.34 32.4922L24.9019 4.21655C15.8064 1.88781 6.54528 7.37332 4.21655 16.4688C1.88781 25.5642 7.37332 34.8254 16.4688 37.1541L126.906 65.4298C136.002 67.7585 145.263 62.273 147.592 53.1775C149.921 44.0821 144.435 34.8209 135.34 32.4922Z" fill="#85B7F6"/>
<path d="M30.1723 30.3401L33.4193 17.6583L37.853 18.7934C38.7364 19.0196 39.4259 19.3589 39.9215 19.8113C40.4182 20.2596 40.7414 20.7756 40.891 21.3594C41.0417 21.939 41.0378 22.5385 40.8793 23.1577C40.7397 23.7026 40.5275 24.1278 40.2426 24.4331C39.9618 24.7395 39.6381 24.9558 39.2715 25.0819C38.9091 25.209 38.5335 25.2756 38.1448 25.2817L38.1131 25.4055C38.4949 25.5296 38.8501 25.7657 39.1788 26.1138C39.5076 26.4619 39.7449 26.901 39.8907 27.431C40.0366 27.961 40.0239 28.5604 39.8526 29.2292C39.6899 29.8649 39.399 30.3997 38.98 30.8334C38.561 31.2672 38.0018 31.5529 37.3023 31.6906C36.6029 31.8282 35.7536 31.7691 34.7546 31.5133L30.1723 30.3401ZM32.0568 29.371L35.1034 30.151C36.1066 30.4079 36.8684 30.3962 37.3888 30.1159C37.9144 29.8326 38.2486 29.4123 38.3912 28.855C38.5012 28.4257 38.4932 28.0013 38.3675 27.582C38.2427 27.1586 38.0061 26.7857 37.6575 26.4633C37.3101 26.1368 36.8597 25.9028 36.3065 25.7611L33.1856 24.9621L32.0568 29.371ZM33.5281 23.6245L36.3765 24.3538C36.8389 24.4722 37.2791 24.4881 37.6971 24.4016C38.1193 24.3162 38.4821 24.1363 38.7854 23.8621C39.0929 23.5889 39.3037 23.2294 39.4179 22.7836C39.5606 22.2262 39.4876 21.7039 39.1989 21.2165C38.9112 20.7249 38.3463 20.3714 37.5042 20.1558L34.6062 19.4138L33.5281 23.6245ZM58.7416 30.8982C58.3992 32.2357 57.8617 33.3298 57.1293 34.1804C56.3968 35.031 55.5419 35.6127 54.5644 35.9255C53.587 36.2383 52.5575 36.2562 51.4759 35.9793C50.3943 35.7024 49.5001 35.1919 48.7932 34.4479C48.0864 33.7038 47.6161 32.7829 47.3826 31.6849C47.149 30.587 47.2035 29.3693 47.5459 28.0317C47.8884 26.6942 48.4258 25.6001 49.1583 24.7495C49.8907 23.899 50.7456 23.3173 51.7231 23.0045C52.7005 22.6917 53.7301 22.6737 54.8116 22.9507C55.8932 23.2276 56.7875 23.7381 57.4943 24.4821C58.2012 25.2261 58.6714 26.1471 58.905 27.245C59.1385 28.3429 59.0841 29.5607 58.7416 30.8982ZM57.2555 30.5177C57.5366 29.4196 57.5902 28.4458 57.4162 27.5963C57.2463 26.7478 56.8994 26.0497 56.3754 25.5021C55.8555 24.9555 55.2117 24.5839 54.4438 24.3873C53.676 24.1907 52.9307 24.2066 52.208 24.4351C51.4894 24.6646 50.8497 25.11 50.2889 25.7714C49.7322 26.4339 49.3132 27.3141 49.0321 28.4122C48.7509 29.5104 48.6953 30.4836 48.8651 31.3321C49.0391 32.1816 49.3861 32.8797 49.9059 33.4263C50.4299 33.974 51.0759 34.3461 51.8437 34.5427C52.6116 34.7393 53.3548 34.7228 54.0734 34.4933C54.7961 34.2648 55.4358 33.8194 55.9925 33.1569C56.5533 32.4956 56.9743 31.6158 57.2555 30.5177ZM68.5182 40.1579L64.6046 39.1559L67.8516 26.4741L71.9385 27.5205C73.1687 27.8354 74.1564 28.3588 74.9016 29.0907C75.6478 29.8184 76.1332 30.7147 76.3576 31.7794C76.5831 32.8401 76.5278 34.0268 76.1917 35.3396C75.8535 36.6606 75.327 37.7377 74.6122 38.5708C73.8985 39.3998 73.0261 39.9551 71.9951 40.2365C70.9651 40.5139 69.8062 40.4877 68.5182 40.1579ZM66.4891 38.1868L68.7679 38.7702C69.8164 39.0387 70.7372 39.0589 71.5302 38.8309C72.3232 38.6028 72.9846 38.1585 73.5144 37.498C74.0443 36.8374 74.4413 35.9911 74.7055 34.9591C74.9677 33.9353 75.0261 33.0111 74.8809 32.1866C74.7368 31.3579 74.3831 30.6603 73.82 30.0938C73.2579 29.5232 72.4814 29.1111 71.4906 28.8574L69.0385 28.2296L66.4891 38.1868ZM85.2891 30.9387L87.122 31.4079L88.7367 43.0383L88.8853 43.0764L95.8904 33.6529L97.7233 34.1222L94.4763 46.804L93.0397 46.4362L95.5066 36.801L95.3828 36.7693L88.9528 45.3898L87.5657 45.0347L86.0696 34.3848L85.9457 34.3531L83.4788 43.9883L82.0422 43.6205L85.2891 30.9387ZM102.98 48.9812L101.37 48.569L109.273 37.0794L110.859 37.4853L112.268 51.3594L110.658 50.9472L109.602 39.3014L109.503 39.276L102.98 48.9812ZM104.843 44.1796L111.332 45.8411L110.983 47.2034L104.494 45.5419L104.843 44.1796ZM128.519 45.3851C128.605 44.7386 128.428 44.1743 127.989 43.6922C127.549 43.2102 126.945 42.8709 126.177 42.6743C125.616 42.5305 125.102 42.4956 124.634 42.5694C124.171 42.6443 123.78 42.8105 123.464 43.0682C123.151 43.3268 122.943 43.6585 122.84 44.063C122.753 44.4015 122.759 44.7132 122.857 44.998C122.961 45.2797 123.121 45.5338 123.335 45.7603C123.551 45.9828 123.786 46.1815 124.04 46.3566C124.296 46.5275 124.533 46.6741 124.753 46.7962L125.952 47.4728C126.26 47.644 126.597 47.8578 126.962 48.1141C127.332 48.3715 127.668 48.6799 127.972 49.0392C128.281 49.3955 128.505 49.8091 128.644 50.2802C128.783 50.7512 128.777 51.284 128.624 51.8785C128.449 52.5637 128.111 53.137 127.61 53.5982C127.113 54.0605 126.481 54.367 125.712 54.5176C124.947 54.6694 124.078 54.6205 123.104 54.3711C122.195 54.1386 121.446 53.7907 120.857 53.3274C120.271 52.8652 119.856 52.3233 119.61 51.7018C119.369 51.0813 119.312 50.418 119.44 49.7117L121.025 50.1176C120.944 50.6071 121.004 51.0446 121.204 51.4302C121.41 51.8127 121.71 52.1359 122.104 52.3996C122.503 52.6603 122.955 52.8551 123.459 52.984C124.045 53.1341 124.596 53.1739 125.111 53.1034C125.627 53.0289 126.065 52.8551 126.425 52.5822C126.786 52.3052 127.026 51.9355 127.145 51.4732C127.252 51.0521 127.222 50.6793 127.055 50.3549C126.887 50.0304 126.633 49.7365 126.291 49.4731C125.949 49.2097 125.571 48.9589 125.157 48.7209L123.711 47.8756C122.793 47.3371 122.113 46.7296 121.67 46.0532C121.227 45.3768 121.116 44.6114 121.334 43.7568C121.516 43.0468 121.867 42.4767 122.386 42.0466C122.91 41.6134 123.536 41.3338 124.263 41.2077C124.996 41.0785 125.767 41.1175 126.576 41.3246C127.393 41.5339 128.082 41.8665 128.643 42.3224C129.205 42.7741 129.607 43.2994 129.849 43.8981C130.096 44.498 130.148 45.1204 130.005 45.7656L128.519 45.3851Z" fill="#4A8FE7" fill-opacity="0.5"/>
</svg>
