<svg xmlns="http://www.w3.org/2000/svg" width="33" height="32" viewBox="0 0 33 32">
  <path fill="#FCB717" fill-rule="nonzero" d="M27.867 28.863c0-.21.112-.579.256-.97l.151-.392.227-.548.207-.492.047-.116.12-.272.157-.327.093-.184c.306-.545.5-.98.583-1.307A5.313 5.313 0 0 0 30 22.458v-.654c0-1.09-.25-1.9-.75-2.43-.5-.532-1.236-.716-2.208-.552-.223-.381-.598-.654-1.125-.817a1.81 1.81 0 0 0-1.5.163c-.417-.49-.917-.742-1.5-.755-.584-.014-1.07.156-1.459.51v-5.085c0-.49-.18-.919-.541-1.287-.361-.367-.778-.551-1.25-.551-.5 0-.93.184-1.292.551-.361-.368-.542.797-.542 1.287v7.087a5.734 5.734 0 0 0-1.041-.572c-.445-.19-.882-.225-1.313-.102a2.07 2.07 0 0 0-1.062.694c-.278.34-.417.742-.417 1.205 0 .708.347 1.229 1.042 1.56l.166.074c.49.203 1.052.769 1.686 1.7l.302.453.41.642.236.384.37.616.123.21.238.416.221.4.195.373c.208.412.344.738.344.885V30.5a1.5 1.5 0 0 0 1.5 1.5h5.534a1.5 1.5 0 0 0 1.5-1.5v-1.637Z"/>
</svg>
