<svg width="115" height="58" viewBox="0 0 115 58" fill="none" xmlns="http://www.w3.org/2000/svg">
<path opacity="0.85" d="M4.17795 11.7144L0.83559 18.9827C0.374107 19.9863 0.813535 21.1739 1.81708 21.6354L43.61 40.854C44.6135 41.3155 45.8012 40.876 46.2627 39.8725L49.605 32.6042C50.0665 31.6006 49.6271 30.413 48.6235 29.9515L6.83063 10.7329C5.82708 10.2714 4.63944 10.7108 4.17795 11.7144Z" fill="#E07B39"/>
<path d="M45.427 41.6895L50.4405 30.787L60.6534 42.0873L45.427 41.6895Z" fill="#F5D6BC"/>
<path d="M4.17795 11.7144L0.83559 18.9827C0.374107 19.9863 0.813535 21.1739 1.81708 21.6354L5.45125 23.3066C6.45479 23.7681 7.64244 23.3286 8.10392 22.3251L11.4463 15.0568C11.9078 14.0532 11.4683 12.8656 10.4648 12.4041L6.83063 10.7329C5.82708 10.2714 4.63944 10.7108 4.17795 11.7144Z" fill="#BBBBBB"/>
<path d="M11.4464 15.0569L8.104 22.3252L10.8296 23.5786L14.172 16.3103L11.4464 15.0569Z" fill="#E0C080"/>
<path d="M75.049 16.6272C80.3824 6.62718 87.049 4.29384 95.049 9.62718C103.049 14.9605 104.382 22.2938 99.049 31.6272C93.7157 40.9605 86.3824 43.6272 77.049 39.6272C67.7157 35.6272 64.3824 28.9605 67.049 19.6272C69.7157 10.2938 75.7157 4.29384 85.049 1.62718C97.049 -1.03949 105.716 3.62718 111.049 15.6272C116.382 27.6272 114.382 38.2938 105.049 47.6272C95.7157 56.9605 84.3824 58.9605 71.049 53.6272" stroke="#E9E9E9" stroke-width="1.8" stroke-linecap="round"/>
</svg>
