<svg width="40" height="40" viewBox="0 0 40 40" fill="none" xmlns="http://www.w3.org/2000/svg">
<rect x="1.5" y="1.5" width="37" height="37" rx="18.5" stroke="#002F76" stroke-width="3"/>
<path d="M20 28C17.7667 28 15.875 27.225 14.325 25.675C12.775 24.125 12 22.2333 12 20C12 17.7667 12.775 15.875 14.325 14.325C15.875 12.775 17.7667 12 20 12C21.15 12 22.25 12.2373 23.3 12.712C24.35 13.1867 25.25 13.866 26 14.75V13C26 12.7167 26.096 12.4793 26.288 12.288C26.48 12.0967 26.7173 12.0007 27 12C27.2827 11.9993 27.5203 12.0953 27.713 12.288C27.9057 12.4807 28.0013 12.718 28 13V18C28 18.2833 27.904 18.521 27.712 18.713C27.52 18.905 27.2827 19.0007 27 19H22C21.7167 19 21.4793 18.904 21.288 18.712C21.0967 18.52 21.0007 18.2827 21 18C20.9993 17.7173 21.0953 17.48 21.288 17.288C21.4807 17.096 21.718 17 22 17H25.2C24.6667 16.0667 23.9377 15.3333 23.013 14.8C22.0883 14.2667 21.084 14 20 14C18.3333 14 16.9167 14.5833 15.75 15.75C14.5833 16.9167 14 18.3333 14 20C14 21.6667 14.5833 23.0833 15.75 24.25C16.9167 25.4167 18.3333 26 20 26C21.1333 26 22.171 25.7127 23.113 25.138C24.055 24.5633 24.784 23.7923 25.3 22.825C25.4333 22.5917 25.621 22.4293 25.863 22.338C26.105 22.2467 26.3507 22.2423 26.6 22.325C26.8667 22.4083 27.0583 22.5833 27.175 22.85C27.2917 23.1167 27.2833 23.3667 27.15 23.6C26.4667 24.9333 25.4917 26 24.225 26.8C22.9583 27.6 21.55 28 20 28Z" fill="#002F76"/>
</svg>
