<svg width="76" height="76" viewBox="0 0 76 76" fill="none" xmlns="http://www.w3.org/2000/svg">
<path d="M27.1227 12.922C31.9267 4.30733 34.3268 0 37.9176 0C41.5083 0 43.9084 4.30733 48.7124 12.922L49.9561 15.1515C51.3211 17.6009 52.0036 18.8256 53.0653 19.6332C54.1269 20.4409 55.454 20.7404 58.1082 21.3395L60.5197 21.8855C69.8472 23.9975 74.5071 25.0515 75.6181 28.6195C76.7253 32.1837 73.5478 35.9033 67.1892 43.3387L65.5436 45.2611C63.7388 47.3731 62.8326 48.431 62.4269 49.7353C62.0212 51.0434 62.1577 52.4539 62.4307 55.2711L62.6809 57.8381C63.6402 67.7609 64.1218 72.7204 61.2174 74.9233C58.3129 77.1263 53.9449 75.1167 45.2165 71.0975L42.9529 70.0586C40.4731 68.9135 39.2333 68.3448 37.9176 68.3448C36.6018 68.3448 35.362 68.9135 32.8822 70.0586L30.6224 71.0975C21.8902 75.1167 17.5222 77.1263 14.6216 74.9271C11.7133 72.7204 12.1949 67.7609 13.1542 57.8381L13.4044 55.2749C13.6774 52.4539 13.8139 51.0434 13.4044 49.7391C13.0025 48.431 12.0963 47.3731 10.2915 45.2649L8.64589 43.3387C2.28727 35.9071 -0.890151 32.1875 0.217016 28.6195C1.32418 25.0515 5.99172 23.9937 15.3192 21.8855L17.7307 21.3395C20.3811 20.7404 21.7044 20.4409 22.7698 19.6332C23.8353 18.8256 24.514 17.6009 25.879 15.1515L27.1227 12.922Z" fill="url(#paint0_linear_106_4176)"/>
<defs>
<linearGradient id="paint0_linear_106_4176" x1="37.9176" y1="0" x2="37.9176" y2="75.8328" gradientUnits="userSpaceOnUse">
<stop stop-color="#FCB717"/>
<stop offset="1" stop-color="#FF7C11"/>
</linearGradient>
</defs>
</svg>
