<svg width="160" height="55" viewBox="0 0 160 55" fill="none" xmlns="http://www.w3.org/2000/svg">
<rect width="160" height="55" rx="27.5" fill="#FCB717"/>
<path d="M50.4357 34.134C49.5038 34.134 48.6613 33.9745 47.9082 33.6553C47.1679 33.3362 46.5807 32.8767 46.1467 32.2767C45.7127 31.6768 45.4893 30.9683 45.4765 30.1514H48.3486C48.3869 30.7003 48.5784 31.1343 48.923 31.4534C49.2804 31.7725 49.7655 31.9321 50.3782 31.9321C51.0037 31.9321 51.4952 31.7853 51.8526 31.4917C52.21 31.1853 52.3887 30.7896 52.3887 30.3046C52.3887 29.9089 52.2674 29.5834 52.0249 29.3281C51.7824 29.0728 51.476 28.8749 51.1058 28.7345C50.7484 28.5813 50.2506 28.4154 49.6123 28.2367C48.7443 27.9814 48.0359 27.7324 47.487 27.4899C46.9509 27.2346 46.4849 26.8581 46.0892 26.3602C45.7063 25.8496 45.5148 25.1731 45.5148 24.3306C45.5148 23.5392 45.7127 22.8499 46.1084 22.2627C46.5041 21.6755 47.0594 21.2287 47.7742 20.9224C48.489 20.6033 49.306 20.4437 50.225 20.4437C51.6037 20.4437 52.7206 20.782 53.5758 21.4585C54.4438 22.1223 54.9225 23.0541 55.0119 24.254H52.0632C52.0377 23.7945 51.8398 23.4179 51.4696 23.1243C51.1122 22.818 50.6335 22.6648 50.0336 22.6648C49.5102 22.6648 49.089 22.7988 48.7699 23.0669C48.4635 23.3349 48.3103 23.7243 48.3103 24.2349C48.3103 24.5923 48.4252 24.8923 48.655 25.1348C48.8975 25.3646 49.1911 25.556 49.5357 25.7092C49.8932 25.8496 50.391 26.0156 51.0292 26.207C51.8972 26.4623 52.6057 26.7176 53.1546 26.9729C53.7035 27.2282 54.1758 27.6112 54.5715 28.1218C54.9672 28.6324 55.1651 29.3025 55.1651 30.1322C55.1651 30.8471 54.98 31.5108 54.6098 32.1236C54.2396 32.7363 53.6971 33.2277 52.9823 33.5979C52.2674 33.9553 51.4186 34.134 50.4357 34.134ZM67.5031 23.3924V34H64.8033V32.6597C64.4587 33.1192 64.0055 33.483 63.4439 33.7511C62.895 34.0064 62.295 34.134 61.644 34.134C60.8143 34.134 60.0803 33.9617 59.4421 33.6171C58.8038 33.2596 58.2996 32.7427 57.9294 32.0661C57.572 31.3768 57.3933 30.5599 57.3933 29.6153V23.3924H60.0739V29.2323C60.0739 30.0748 60.2846 30.7258 60.7058 31.1853C61.127 31.6321 61.7015 31.8555 62.4291 31.8555C63.1694 31.8555 63.7502 31.6321 64.1715 31.1853C64.5927 30.7258 64.8033 30.0748 64.8033 29.2323V23.3924H67.5031ZM72.8286 24.9433C73.1733 24.4327 73.6456 24.0179 74.2455 23.6987C74.8582 23.3796 75.5539 23.2201 76.3326 23.2201C77.2389 23.2201 78.0558 23.4434 78.7834 23.8902C79.5238 24.337 80.1046 24.9752 80.5258 25.8049C80.9598 26.6219 81.1768 27.5729 81.1768 28.6579C81.1768 29.7429 80.9598 30.7067 80.5258 31.5491C80.1046 32.3789 79.5238 33.0235 78.7834 33.483C78.0558 33.9426 77.2389 34.1723 76.3326 34.1723C75.5411 34.1723 74.8455 34.0191 74.2455 33.7128C73.6583 33.3937 73.186 32.9852 72.8286 32.4874V34H70.148V19.831H72.8286V24.9433ZM78.4388 28.6579C78.4388 28.0197 78.3047 27.4708 78.0367 27.0112C77.7814 26.5389 77.4367 26.1815 77.0027 25.939C76.5815 25.6964 76.1219 25.5752 75.6241 25.5752C75.139 25.5752 74.6795 25.7028 74.2455 25.9581C73.8243 26.2007 73.4796 26.5581 73.2115 27.0304C72.9563 27.5027 72.8286 28.0579 72.8286 28.6962C72.8286 29.3344 72.9563 29.8897 73.2115 30.362C73.4796 30.8343 73.8243 31.1981 74.2455 31.4534C74.6795 31.6959 75.139 31.8172 75.6241 31.8172C76.1219 31.8172 76.5815 31.6896 77.0027 31.4343C77.4367 31.179 77.7814 30.8152 78.0367 30.3429C78.3047 29.8706 78.4388 29.3089 78.4388 28.6579ZM96.2981 23.2392C97.6001 23.2392 98.6469 23.6413 99.4383 24.4455C100.242 25.2369 100.645 26.3475 100.645 27.7771V34H97.9639V28.1409C97.9639 27.3112 97.7533 26.6793 97.3321 26.2453C96.9108 25.7986 96.3364 25.5752 95.6088 25.5752C94.8812 25.5752 94.3004 25.7986 93.8664 26.2453C93.4452 26.6793 93.2346 27.3112 93.2346 28.1409V34H90.5539V28.1409C90.5539 27.3112 90.3433 26.6793 89.9221 26.2453C89.5008 25.7986 88.9264 25.5752 88.1988 25.5752C87.4584 25.5752 86.8713 25.7986 86.4373 26.2453C86.016 26.6793 85.8054 27.3112 85.8054 28.1409V34H83.1248V23.3924H85.8054V24.6753C86.15 24.2285 86.5904 23.8775 87.1266 23.6222C87.6754 23.3669 88.2754 23.2392 88.9264 23.2392C89.7561 23.2392 90.4965 23.4179 91.1475 23.7753C91.7985 24.12 92.3027 24.6178 92.6601 25.2688C93.0048 24.6561 93.5026 24.1647 94.1536 23.7945C94.8174 23.4243 95.5322 23.2392 96.2981 23.2392ZM104.548 22.1287C104.075 22.1287 103.68 21.9819 103.361 21.6883C103.054 21.3819 102.901 21.0054 102.901 20.5586C102.901 20.1118 103.054 19.7416 103.361 19.448C103.68 19.1417 104.075 18.9885 104.548 18.9885C105.02 18.9885 105.409 19.1417 105.716 19.448C106.035 19.7416 106.194 20.1118 106.194 20.5586C106.194 21.0054 106.035 21.3819 105.716 21.6883C105.409 21.9819 105.02 22.1287 104.548 22.1287ZM105.869 23.3924V34H103.188V23.3924H105.869ZM111.638 25.5943V30.7258C111.638 31.0832 111.721 31.3449 111.887 31.5108C112.066 31.664 112.36 31.7406 112.768 31.7406H114.013V34H112.328C110.068 34 108.939 32.9022 108.939 30.7067V25.5943H107.675V23.3924H108.939V20.7692H111.638V23.3924H114.013V25.5943H111.638Z" fill="#002F76"/>
</svg>
