<svg width="18" height="15" viewBox="0 0 18 15" fill="none" xmlns="http://www.w3.org/2000/svg">
<path d="M2.04545 14.5454L12.0454 -4.48227e-05H13.6648L3.66477 14.5454H2.04545ZM1.97443 7.72723V1.54825H1.9034L-5.52833e-06 2.81246V1.30677L1.97443 -4.48227e-05H3.4517V7.72723H1.97443ZM11.0511 14.5454V13.4659L14.0909 10.909C14.5454 10.5255 14.8769 10.2012 15.0852 9.93604C15.2936 9.67088 15.3977 9.38916 15.3977 9.09086C15.3977 8.72155 15.2533 8.42562 14.9645 8.20308C14.6757 7.98054 14.3182 7.86927 13.892 7.86927C13.4659 7.86927 13.1084 7.98764 12.8196 8.22439C12.5308 8.45639 12.3864 8.76416 12.3864 9.14768H10.9659C10.9659 8.42325 11.2382 7.83613 11.7827 7.38632C12.3272 6.93177 13.0398 6.7045 13.9204 6.7045C14.8011 6.7045 15.5043 6.93177 16.0298 7.38632C16.5554 7.83613 16.8182 8.39484 16.8182 9.06246C16.8182 9.40336 16.7495 9.7206 16.6122 10.0142C16.4796 10.3077 16.2618 10.6131 15.9588 10.9304C15.6605 11.2476 15.2651 11.6098 14.7727 12.017L13.2102 13.2954V13.3522H17.1023V14.5454H11.0511Z" fill="#AAAAAA"/>
</svg>
