<svg width="23" height="15" viewBox="0 0 23 15" fill="none" xmlns="http://www.w3.org/2000/svg">
<path d="M8.01136 12.1306L-1.2517e-06 4.11926L1.07954 3.03972L9.09091 11.0511L8.01136 12.1306ZM1.07954 12.1306L-1.2517e-06 11.0511L8.01136 3.03972L9.09091 4.11926L1.07954 12.1306ZM17.5586 14.9431C16.6211 14.9431 15.7854 14.7821 15.0515 14.4602C14.3223 14.1382 13.7423 13.6908 13.3114 13.1178C12.8853 12.5402 12.6533 11.8702 12.6154 11.1079H14.4052C14.4431 11.5766 14.604 11.9815 14.8881 12.3224C15.1722 12.6586 15.5439 12.919 16.0032 13.1036C16.4625 13.2883 16.9715 13.3806 17.5302 13.3806C18.1552 13.3806 18.7092 13.2717 19.1921 13.0539C19.6751 12.8361 20.0539 12.5331 20.3285 12.1448C20.6031 11.7566 20.7404 11.3068 20.7404 10.7954C20.7404 10.2604 20.6078 9.78924 20.3427 9.38205C20.0775 8.97011 19.6893 8.64815 19.1779 8.41614C18.6665 8.18413 18.0415 8.06813 17.3029 8.06813H16.1381V6.50563H17.3029C17.8806 6.50563 18.3872 6.40146 18.8228 6.19313C19.2631 5.98479 19.6064 5.69123 19.8526 5.31244C20.1036 4.93366 20.229 4.48858 20.229 3.97722C20.229 3.48479 20.1201 3.05629 19.9023 2.69171C19.6845 2.32712 19.3768 2.04303 18.979 1.83943C18.5861 1.63583 18.122 1.53404 17.587 1.53404C17.0851 1.53404 16.6116 1.62636 16.1665 1.81102C15.7262 1.99095 15.3664 2.25373 15.087 2.59938C14.8076 2.94029 14.6561 3.35222 14.6325 3.83517H12.9279C12.9563 3.07286 13.186 2.40525 13.6168 1.83233C14.0477 1.25468 14.6111 0.804868 15.3072 0.482899C16.0079 0.160929 16.7773 -5.60284e-05 17.6154 -5.60284e-05C18.515 -5.60284e-05 19.2868 0.182236 19.9308 0.546819C20.5747 0.906667 21.0695 1.38252 21.4151 1.97438C21.7608 2.56623 21.9336 3.20544 21.9336 3.89199C21.9336 4.71112 21.7182 5.40951 21.2873 5.98716C20.8611 6.56481 20.2811 6.96491 19.5472 7.18744V7.30108C20.4658 7.4526 21.1831 7.84322 21.6992 8.47296C22.2153 9.09796 22.4734 9.8721 22.4734 10.7954C22.4734 11.5861 22.2579 12.2963 21.8271 12.9261C21.4009 13.5511 20.8185 14.0435 20.0799 14.4034C19.3413 14.7632 18.5008 14.9431 17.5586 14.9431Z" fill="#AAAAAA"/>
</svg>
