<svg width="18" height="19" viewBox="0 0 18 19" fill="none" xmlns="http://www.w3.org/2000/svg">
<path d="M17.2726 7.88068V10.9034H-0.000110716V7.88068H17.2726ZM8.63625 18.7841C7.96154 18.7841 7.38578 18.5502 6.90898 18.0824C6.44118 17.6056 6.20728 17.0298 6.20728 16.3551C6.20728 15.7074 6.44118 15.1496 6.90898 14.6818C7.38578 14.214 7.96154 13.9801 8.63625 13.9801C9.28398 13.9801 9.84175 14.214 10.3095 14.6818C10.7774 15.1496 11.0113 15.7074 11.0113 16.3551C11.0113 17.0298 10.7774 17.6056 10.3095 18.0824C9.84175 18.5502 9.28398 18.7841 8.63625 18.7841ZM8.63625 4.80398C8.18644 4.80398 7.77711 4.69602 7.40827 4.48011C7.03943 4.2642 6.74705 3.97183 6.53114 3.60298C6.31523 3.23414 6.20728 2.82481 6.20728 2.375C6.20728 1.72727 6.44118 1.16951 6.90898 0.701703C7.38578 0.233901 7.96154 0 8.63625 0C9.28398 0 9.84175 0.233901 10.3095 0.701703C10.7774 1.16951 11.0113 1.72727 11.0113 2.375C11.0113 3.04972 10.7774 3.62547 10.3095 4.10227C9.84175 4.57008 9.28398 4.80398 8.63625 4.80398Z" fill="#4A8FE7"/>
</svg>
