<svg width="12" height="12" viewBox="0 0 12 12" fill="none" xmlns="http://www.w3.org/2000/svg">
<path d="M10.7102 8.84533e-05V1.56259H-8.32975e-06V8.84533e-05H10.7102ZM3.29545 8.84533e-05V10.9092H1.61931V8.84533e-05H3.29545ZM7.47158 8.84533e-05H9.14772V8.21032C9.14772 8.55123 9.20927 8.80691 9.33238 8.97736C9.46022 9.14782 9.61647 9.26145 9.80113 9.31827C9.99052 9.37509 10.1799 9.4035 10.3693 9.4035C10.5256 9.4035 10.6842 9.38693 10.8452 9.35378C11.0109 9.32064 11.1364 9.28986 11.2216 9.26145V10.824C11.0795 10.8666 10.8878 10.9139 10.6463 10.966C10.4048 11.0228 10.1136 11.0512 9.77272 11.0512C9.10511 11.0512 8.5535 10.8405 8.11789 10.4191C7.68702 9.99772 7.47158 9.26145 7.47158 8.21032V8.84533e-05Z" fill="#3D3D3A"/>
</svg>
